# xmcd CD database file
#
# Track frame offsets:
#	150
#	20774
#	42396
#	57283
#	77391
#	93823
#	111344
#	125769
#	155425
#	175396
#	195127
#	213442
#	247637
#
# Disc length: 3591 seconds
#
# Revision: 0
# Processed by: cddbd v1.5.2PL0 Copyright (c) Steve Scherf et al.
# Submitted via: CDex 1.70beta2
#
DISCID=a10e050d
DTITLE=La Clef Des Champs - A.I.M.J. Du Collège De Marciac
DYEAR=2005
DGENRE=Jazz
TTITLE0=Billie's Bounce-Charlie Parker-Classe De 3ème Marciac
TTITLE1=I Thought About You-Johnny Mercer And Jimmy Van Heusen-Classe De 4ème Marciac
TTITLE2=Chicken-Jaco Pastorius-Classe De 2nde Et 1ère Mirande
TTITLE3=Lullaby Of Birdland-George Shearing-Classe De 3ème Marciac
TTITLE4=Hear Me Talkin To Ya-Julian And Nathaniel Adderley-Classe De 5ème Marciac
TTITLE5=Mack The Knife-Kurt Weil-Classe De 6ème Marciac
TTITLE6=Saint Thomas-Sonny Rollins-Combo De 3ème Marciac
TTITLE7=Over The Rainbow-Harold Harlen-Big Band
TTITLE8=WaterMelon Man-Herbie Hancock-Classe De 4ème Marciac
TTITLE9=Casa De Luz-Shorty Rogers-Combo De 4ème Marciac
TTITLE10=B.5-Jean-Pierre Peyrebelle-Classe De 5ème Marciac
TTITLE11=Night In Tunisia-Dissy Gillespie-Groupe Éphémère
TTITLE12=Speak No Evil-Wayne Shorter-Classe De 3ème Marciac, 2nde Et 1ère Mirande
EXTD=YEAR: 2005
EXTT0=
EXTT1=
EXTT2=
EXTT3=
EXTT4=
EXTT5=
EXTT6=
EXTT7=
EXTT8=
EXTT9=
EXTT10=
EXTT11=
EXTT12=
PLAYORDER=
